<svg width="56" height="56" viewBox="0 0 56 56" fill="none" xmlns="http://www.w3.org/2000/svg">
<path d="M27.4999 0.0870683C22.0611 0.103684 16.749 1.73276 12.2359 4.76829C7.72284 7.80383 4.21123 12.1095 2.14519 17.1408C0.0791401 22.172 -0.448569 27.7031 0.62881 33.0342C1.70619 38.3656 4.34028 43.2574 8.19796 47.0918C12.0556 50.9259 16.9636 53.53 22.3014 54.5748C27.6389 55.6197 33.1668 55.0579 38.1854 52.9612C43.2039 50.8644 47.4879 47.3269 50.496 42.7953C53.5038 38.2637 55.1004 32.942 55.0838 27.5029C55.0615 20.2095 52.1427 13.2237 46.97 8.08219C41.797 2.9407 34.7932 0.0647869 27.4999 0.0870683ZM41.0667 18.8832L36.6286 40.175C36.2895 41.6885 35.3968 42.035 34.1228 41.3514L27.2323 36.2849L23.8046 39.4923C23.6434 39.7042 23.4359 39.8767 23.1981 39.9967C22.9602 40.1163 22.6981 40.1804 22.4317 40.184L22.892 33.3075L35.5755 21.7531C36.1584 21.2701 35.5732 20.9969 34.7496 21.4806L19.1734 31.3251L12.2919 29.2149C10.8124 28.7725 10.7749 27.7414 12.5947 27.0483L39.0662 16.6549C40.3713 16.2728 41.4736 17.0257 41.0667 18.8832Z" fill="currentColor"/>
</svg>
